<svg width="455" height="110" viewBox="0 0 455 110" fill="none" xmlns="http://www.w3.org/2000/svg">
<path d="M255.62 37.97C236.32 37.97 220.67 53.62 220.67 72.92V74.91C220.67 94.21 236.32 109.86 255.62 109.86C274.92 109.86 290.57 94.21 290.57 74.91V72.92C290.57 53.62 274.92 37.97 255.62 37.97ZM279.57 74.59C279.57 87.82 268.85 98.54 255.62 98.54C242.39 98.54 231.67 87.82 231.67 74.59V73.23C231.67 60 242.39 49.28 255.62 49.28C268.85 49.28 279.57 60 279.57 73.23V74.59Z" fill="#EDF4FF"/>
<path d="M6.77 39.23H0V108.58H42.61V102.45H6.77V39.23Z" fill="#EDF4FF"/>
<path d="M54.2299 55.73H47.8899V108.59H54.2299V55.73Z" fill="#EDF4FF"/>
<path d="M99.5799 101.13C96.6199 103.07 93.2399 104.04 89.4299 104.04C85.6199 104.04 82.2399 103.11 79.2799 101.24C76.3199 99.37 73.9899 96.8 72.2999 93.52C70.6099 90.24 69.7599 86.46 69.7599 82.16C69.7599 77.86 70.5899 74.07 72.2399 70.8C73.8999 67.52 76.1899 64.95 79.1099 63.08C82.0299 61.21 85.3999 60.28 89.2099 60.28C93.0199 60.28 96.2699 61.14 99.1999 62.87C102.12 64.6 104.4 66.98 106.02 70.01L111.52 67.05C109.41 63.1 106.41 60.02 102.53 57.8C98.6499 55.58 94.2099 54.47 89.2099 54.47C84.2099 54.47 79.7499 55.65 75.8399 58.01C71.9299 60.37 68.8799 63.63 66.6999 67.79C64.5099 71.95 63.4199 76.74 63.4199 82.17C63.4199 87.6 64.5299 92.39 66.7499 96.55C68.9699 100.71 72.0399 103.97 75.9499 106.33C79.8599 108.69 84.3499 109.87 89.4299 109.87C94.5099 109.87 98.9999 108.64 102.91 106.17C106.82 103.7 109.83 100.32 111.95 96.02L106.35 93.06C104.8 96.51 102.54 99.21 99.5799 101.15V101.13Z" fill="#EDF4FF"/>
<path d="M126.22 55.73H119.88V108.59H126.22V55.73Z" fill="#EDF4FF"/>
<path d="M160.21 103.67C159.4 103.92 158.57 104.04 157.73 104.04C154.84 104.04 152.58 103.25 150.96 101.66C149.34 100.07 148.53 97.87 148.53 95.05V61.54H165.34V55.73H148.53V39.24H142.19V55.73H132.78V61.54H142.19V95.05C142.19 99.77 143.56 103.42 146.31 105.99C149.06 108.56 152.86 109.85 157.73 109.85C159.07 109.85 160.37 109.69 161.64 109.37C162.91 109.05 164.49 108.33 166.4 107.2L163.76 101.7C162.21 102.76 161.03 103.41 160.22 103.66L160.21 103.67Z" fill="#EDF4FF"/>
<path d="M202.76 57.31C199.66 55.41 195.75 54.46 191.03 54.46C188.21 54.46 185.64 54.87 183.31 55.68C180.98 56.49 178.89 57.71 177.02 59.33C175.15 60.95 173.48 63.03 172 65.57L177.71 68.11C179.12 65.43 180.9 63.46 183.05 62.19C185.2 60.92 187.86 60.29 191.03 60.29C194.48 60.29 197.28 61.03 199.43 62.51C201.58 63.99 203.16 66.19 204.19 69.12C204.97 71.35 205.45 74.05 205.63 77.21H189.97C183.77 77.21 178.92 78.66 175.43 81.54C171.94 84.43 170.2 88.48 170.2 93.7C170.2 98.92 171.94 102.74 175.43 105.59C178.92 108.44 183.76 109.87 189.97 109.87C196.18 109.87 200.88 107.69 204.29 103.32C204.82 102.64 205.3 101.93 205.75 101.18L206.24 108.6H212.05V80.27C212.05 74.49 211.27 69.7 209.72 65.89C208.17 62.08 205.84 59.23 202.74 57.33L202.76 57.31ZM203.82 95.9C202.55 98.58 200.7 100.6 198.27 101.98C195.84 103.35 192.93 104.04 189.55 104.04C185.46 104.04 182.27 103.12 179.98 101.29C177.69 99.46 176.54 96.92 176.54 93.68C176.54 90.44 177.65 87.67 179.87 85.8C182.09 83.93 185.74 83 190.81 83H205.72V85.96C205.72 89.91 205.09 93.22 203.82 95.9Z" fill="#EDF4FF"/>
<path d="M333.82 57C330.82 55.31 327.21 54.46 322.98 54.46C318.75 54.46 315.23 55.5 312.2 57.58C310.16 58.98 308.45 60.82 307.05 63.08L306.49 55.73H295.39V108.59H307.23V81C307.23 76 308.32 72.16 310.51 69.48C312.69 66.8 315.76 65.5 319.71 65.57C322.04 65.57 324.06 66.03 325.79 66.94C327.52 67.86 328.86 69.46 329.81 71.75C330.76 74.04 331.24 77.3 331.24 81.53V108.59H343.08V78.78C343.08 73.07 342.29 68.44 340.7 64.88C339.11 61.32 336.82 58.7 333.83 57H333.82Z" fill="#EDF4FF"/>
<path d="M383.51 97.11C381.4 98.56 378.72 99.28 375.48 99.28C372.66 99.28 370.09 98.65 367.76 97.38C365.43 96.11 363.57 94.3 362.16 91.94C360.97 89.95 360.29 87.64 360.1 85.02H400C400 78.68 398.89 73.22 396.67 68.63C394.45 64.05 391.44 60.54 387.63 58.11C383.82 55.68 379.56 54.46 374.84 54.46C369.62 54.46 364.99 55.64 360.94 58C356.89 60.36 353.7 63.62 351.37 67.78C349.04 71.94 347.88 76.73 347.88 82.16C347.88 87.59 349.02 92.38 351.32 96.54C353.61 100.7 356.75 103.96 360.73 106.32C364.71 108.68 369.27 109.86 374.42 109.86C378.44 109.86 382.01 109.3 385.15 108.17C388.29 107.04 391 105.42 393.29 103.31C395.58 101.2 397.47 98.73 398.95 95.91L388.48 91.47C387.28 93.8 385.63 95.68 383.51 97.13V97.11ZM362.9 70.26C364.31 68.39 366.07 66.98 368.19 66.03C370.3 65.08 372.42 64.6 374.53 64.6C376.64 64.6 378.67 65.08 380.61 66.03C382.55 66.98 384.15 68.39 385.42 70.26C386.46 71.8 387.07 73.69 387.26 75.92H360.87C361.07 73.69 361.75 71.8 362.91 70.26H362.9Z" fill="#EDF4FF"/>
<path d="M54.2299 39.23H47.8899V45.57H54.2299V39.23Z" fill="#EDF4FF"/>
<path d="M126.22 39.23H119.88V45.57H126.22V39.23Z" fill="#EDF4FF"/>
<path d="M427.23 27.23V0H400V54.46H454.46V27.23H427.23Z" fill="#0050FF"/>
</svg>
